<?xml version="1.0" encoding="utf-8"?>
<!-- Generator: Adobe Illustrator 28.3.0, SVG Export Plug-In . SVG Version: 6.00 Build 0)  -->
<svg version="1.1" id="success" xmlns="http://www.w3.org/2000/svg" xmlns:xlink="http://www.w3.org/1999/xlink" x="0px" y="0px"
	 viewBox="0 0 300 300" style="enable-background:new 0 0 300 300;" xml:space="preserve">
<style type="text/css">
	.st0{fill:#FFCC29;}
	.st1{fill:#F4AE00;}
	.st2{fill:#F58634;}
	.st3{fill:#EA6C18;}
	.st4{fill:#00AF91;}
	.st5{fill:#00997C;}
	.st6{fill:#231815;}
	.st7{fill:#FFFFFF;}
</style>
<g id="Layer_2">
	<path class="st0" d="M254.1,75.1H21.8C13.1,75.1,6,82.2,6,90.9v160.3C6,260,13.1,267,21.8,267h230.4c9.8,0,17.7-7.9,17.7-17.6
		c0,0,0,0,0,0V90.9C269.9,82.2,262.8,75.1,254.1,75.1z"/>
	<path class="st1" d="M27.1,254.9c-5,0.1-9.1-3.9-9.2-8.9c0,0,0-0.1,0-0.1v-170c-7,1.7-11.9,7.9-12,15.1v160.3
		C6,260,13.1,267,21.8,267h230.4c9.1,0,16.7-7,17.5-16.1L27.1,254.9z"/>
	<path class="st2" d="M254.1,75.1H21.8C13.1,75.1,6,82.2,6,90.9v20.2h263.9V90.9C269.9,82.2,262.8,75.1,254.1,75.1z"/>
	<path class="st3" d="M18,111.1V75.9c-7,1.7-11.9,7.9-12,15.1v20.2H18z"/>
	<path class="st4" d="M227.9,27.1L227.9,27.1c36.4,0,66,29.5,66,66l0,0c0,36.4-29.5,66-66,66l0,0c-36.4,0-66-29.5-66-66l0,0
		C162,56.7,191.5,27.1,227.9,27.1z"/>
	<path class="st5" d="M179.4,92.8c-0.1-32.7,24-60.4,56.4-64.9c-2.7-0.5-5.4-0.7-8.2-0.8c-36.3,0-65.7,29.4-65.7,65.7
		c0,36.3,29.4,65.7,65.7,65.7c3.2,0,6.4-0.3,9.6-0.8C204.3,153.8,179.5,125.9,179.4,92.8z"/>
	<g>
		<path class="st6" d="M42,225.1c-3.3,0-6,2.7-6,6c0,3.3,2.7,6,6,6h48c3.3,0,6-2.7,6-6c0-3.3-2.7-6-6-6H42z"/>
		<path class="st7" d="M215.7,113.3c2.3,2.3,6.1,2.4,8.5,0c0,0,0,0,0,0l32-32c2.3-2.3,2.3-6.1,0-8.5s-6.1-2.3-8.5,0l0,0l-27.7,27.7
			l-11.7-11.8c-2.3-2.3-6.1-2.3-8.5,0c-2.3,2.3-2.3,6.1,0,8.5L215.7,113.3z"/>
		<path class="st6" d="M227.9,165.1c39.8,0,72-32.1,72.1-71.9c0-39.8-32.1-72-71.9-72.1c-30.5,0-57.8,19.2-67.9,48H21.8
			C9.8,69.1,0,78.9,0,90.9v160.3C0,263.3,9.8,273,21.8,273h232.3c12.1,0,21.8-9.8,21.8-21.8v-78.1c0-3.3-2.7-6-6-6c-3.3,0-6,2.7-6,6
			v78.1c0,5.4-4.4,9.8-9.8,9.8H21.8c-5.4,0-9.8-4.4-9.8-9.8V117.1h148.2C170.3,145.8,197.5,165,227.9,165.1z M227.9,33.1
			c33.1,0,60,26.9,60,60s-26.9,60-60,60s-60-26.9-60-60C168,60,194.8,33.1,227.9,33.1z M12,105.1V90.9c0-5.4,4.4-9.8,9.8-9.8H157
			c-1.4,7.9-1.4,16.1,0,24H12z"/>
	</g>
</g>
</svg>
