<?xml version="1.0" encoding="utf-8"?>
<!-- Generator: Adobe Illustrator 28.3.0, SVG Export Plug-In . SVG Version: 6.00 Build 0)  -->
<svg version="1.1" id="圖層_1" xmlns="http://www.w3.org/2000/svg" xmlns:xlink="http://www.w3.org/1999/xlink" x="0px" y="0px"
	 viewBox="0 0 60 40" style="enable-background:new 0 0 60 40;" xml:space="preserve">
<style type="text/css">
	.st0{fill:#FCB335;}
</style>
<g>
	<polygon class="st0" points="39.9,29.3 41.3,29.3 41.6,28.1 40.3,28.1 	"/>
	<path class="st0" d="M32.5,25.9h2.4c0.2,0,0.3-0.1,0.3-0.2l0.2-0.6h-2.7L32.5,25.9z"/>
	<path class="st0" d="M32.9,24.4c0,0,0.4-0.3,1.2-0.3c0.7,0,1.6,0,1.6,0l0.2-0.8h-2.7L32.9,24.4z"/>
	<path class="st0" d="M27,18.6c0.4,0,0.7-0.1,1-0.4c0.3-0.3,0.4-0.7,0.6-1.3c0-0.1,0-0.2,0-0.3c0-0.1,0-0.2,0-0.3
		c0-0.3-0.1-0.6-0.3-0.8c-0.2-0.2-0.4-0.3-0.7-0.3c-0.4,0-0.7,0.1-1,0.4c-0.3,0.3-0.4,0.7-0.6,1.3c0,0.1,0,0.2,0,0.3
		c0,0.1,0,0.2,0,0.2c0,0.3,0.1,0.6,0.3,0.8C26.5,18.5,26.7,18.6,27,18.6z"/>
	<path class="st0" d="M41.9,14.7c0.3-0.2,0.4-0.5,0.5-1c0-0.1,0-0.2,0-0.2c0-0.1,0-0.1,0-0.2c0-0.3-0.1-0.5-0.3-0.7
		c-0.2-0.1-0.6-0.2-1-0.2h-1.5L39.1,15h1.7C41.3,15,41.6,14.9,41.9,14.7z"/>
	<path class="st0" d="M45.6,18.7c0.5,0.2,1.1-0.4,1.4-1.2c0.3-0.8,0.1-1.6-0.4-1.7c-0.5-0.2-1.1,0.4-1.4,1.2
		C45,17.7,45.2,18.5,45.6,18.7z"/>
	<path class="st0" d="M41.2,25c0,0,0.8-0.3,1.5-0.4c0.1-0.6,0.3-1.2,0.3-1.2h-1.3L41.2,25z"/>
	<path class="st0" d="M40.5,27.5c0,0,0.9-0.4,1.5-0.5c0.2-0.6,0.3-1.2,0.3-1.2h-1.4L40.5,27.5z"/>
	<path class="st0" d="M57,0.8l-12.8,0c0,0,0,0,0,0c-2,0.1-4.6,1.7-5,3.7l-1.1,4.9h-1.9l1.1-4.9c0.5-2,3-3.7,5-3.7l-5.9,0l-8.6,0
		c0,0,0,0,0,0c-2,0.1-4.6,1.7-5,3.7l-1.1,4.9h-1.9l1.1-4.9c0.5-2,3-3.7,5.1-3.7l-13.6,0c-2.1,0-4.7,1.7-5.2,3.7l-7,31
		C0,35.7,0,35.9,0,36.1v0.6c0.1,1.5,1.3,2.6,2.9,2.6h13.7c-2,0-3.3-1.7-2.8-3.7l0.6-2.8h1.9l-0.6,2.8c-0.5,2,0.8,3.7,2.8,3.7H33
		c-2,0-3.3-1.7-2.8-3.7l0.6-2.8h1.9l-0.6,2.8c-0.5,2,0.8,3.7,2.8,3.7h9.1h4.4c2-0.1,3.9-1.7,4.4-3.7l7-31C60.4,2.4,59.1,0.8,57,0.8z
		 M44.9,14.8c1.2-0.5,1.7-0.2,2.4,0.3l0.6-0.4l1.5-0.1l-1.1,5.1l-1.7,0l-0.2-0.3C42.1,21.1,43.4,15.6,44.9,14.8z M48,23L47.7,24
		h-1.2c-0.5,0-0.7-0.2-0.7-0.5l-0.1-1.4h1.7l0.1,0.6c0,0.2,0.1,0.2,0.3,0.2H48z M38.1,10.9H42c0.7,0,1.3,0.2,1.7,0.5
		c0.4,0.3,0.6,0.8,0.6,1.4v0c0,0.1,0,0.3,0,0.4c0,0.1,0,0.3-0.1,0.4c-0.2,0.8-0.6,1.5-1.2,2c-0.6,0.5-1.3,0.8-2.2,0.8h-2.1l-0.6,3.1
		h-1.8L38.1,10.9z M31.5,14.3h1.3L32.7,15l0.2-0.2c0.4-0.5,1-0.7,1.6-0.7c0.6,0,1,0.2,1.2,0.5c0.2,0.3,0.3,0.8,0.2,1.4l-0.7,3.7
		h-1.4l0.7-3.3c0.1-0.3,0-0.6-0.1-0.8c-0.1-0.2-0.3-0.2-0.6-0.2c-0.4,0-0.6,0.1-0.9,0.3c-0.2,0.2-0.4,0.5-0.5,0.9l-0.6,3.1h-1.4
		L31.5,14.3z M31.1,22.8l-0.3,1h-2.6c-0.3,0.4-0.7,0.7-1.1,0.6h-1.3l0.3-1.1h0.3c0.2,0,0.4-0.1,0.5-0.2l0.7-1v0h1.8L29,22.8H31.1z
		 M13.1,19c-0.7,0.5-1.7,0.8-2.9,0.8c-1.1,0-1.9-0.3-2.4-0.8c-0.4-0.4-0.5-0.9-0.5-1.5c0-0.3,0-0.5,0.1-0.8l1.2-6h1.9l-1.2,6
		c0,0.2-0.1,0.3-0.1,0.5c0,0.3,0.1,0.6,0.2,0.8c0.2,0.3,0.6,0.4,1.1,0.4c0.6,0,1.1-0.1,1.4-0.4c0.4-0.3,0.6-0.7,0.7-1.2l1.2-6v0h1.9
		l-1.3,6C14.3,17.7,13.8,18.4,13.1,19z M20.6,16l-0.7,3.7h-1.4l0.7-3.3c0.1-0.3,0-0.6-0.1-0.8c-0.1-0.2-0.3-0.2-0.6-0.2
		c-0.4,0-0.6,0.1-0.9,0.3c-0.2,0.2-0.4,0.5-0.5,0.9l-0.6,3.1h-1.4l1.1-5.4h1.3L17.4,15l0.2-0.2c0.4-0.5,1-0.7,1.6-0.7
		c0.6,0,1,0.2,1.2,0.5C20.7,14.9,20.8,15.4,20.6,16z M22.8,19.6h-1.5l1.2-5.4h1.5L22.8,19.6z M24.1,13.6h-1.5l0.3-1.3h1.5L24.1,13.6
		z M24.7,17.4c0-0.1,0-0.3,0.1-0.4c0.2-0.9,0.5-1.6,1.1-2.1c0.6-0.5,1.3-0.8,2.1-0.8c0.7,0,1.2,0.2,1.6,0.6c0.4,0.4,0.6,0.9,0.6,1.5
		c0,0.1,0,0.2,0,0.4c0,0.1,0,0.3-0.1,0.4c-0.2,0.9-0.5,1.5-1.1,2c-0.6,0.5-1.3,0.8-2.1,0.8c-0.7,0-1.2-0.2-1.6-0.5
		c-0.4-0.4-0.6-0.9-0.6-1.5C24.7,17.6,24.7,17.5,24.7,17.4z M29,31h-2.9c-0.5,0-0.7-0.3-0.6-0.9l0.5-2h-1.2l0.3-1.1h1.2l0.3-1.1
		h-1.1l0.3-1.1h4.7l-0.3,1.1h-1.9L28.1,27h1.8l-0.3,1.1h-1.8l-0.4,1.6c-0.1,0.3,0,0.4,0.4,0.4h1.5L29,31z M36.6,27.9
		c-0.1,0.5-0.5,0.8-1.1,0.8h-0.8l0,1.1c0,0.2,0.1,0.3,0.5,0.3h0.8L35.6,31h-1.8c-0.5,0-0.8-0.2-0.8-0.7l0.1-3.1h1.5l0,0.7h0.4
		c0.2,0,0.3-0.1,0.3-0.2l0.1-0.4h1.3L36.6,27.9z M35.6,26.9h-3.4l-0.8,2.9c0,0.2,0,0.2,0.2,0.2h0.7L32.1,31h-1.7
		c-0.6,0-0.9-0.2-0.8-0.6l2.2-8.3h1.6l-0.1,0.6c0,0,0.9-0.7,1.7-0.7h3l-1.1,4.1C36.7,26.7,36.3,26.9,35.6,26.9z M42.8,30.5L42.7,31
		H41l0.1-0.5h-3.4l0.3-1.2h0.3l1.7-5.9h-0.3l0.4-1.3h1.8l-0.1,0.5c0,0,0.9-0.5,1.6-0.5c0.7,0,2.2,0,2.2,0l-0.4,1.3h-0.4l-1.7,5.9
		h0.4l-0.3,1.2H42.8z M50.3,25.5h-1.7l-0.3,1.1H50l-0.3,1.1h-1.9l-0.4,0.7h1l0.2,1.3c0,0.1,0.1,0.2,0.3,0.2h0.3L48.8,31h-1
		c-0.5,0-0.8-0.2-0.8-0.5l-0.3-1.2l-0.9,1.3c-0.2,0.4-0.5,0.5-0.9,0.5h-1.6l0.3-1.1h0.5c0.2,0,0.4-0.1,0.5-0.3l1.4-2h-1.7l0.3-1.1
		h1.9l0.3-1.1h-1.9l0.3-1.1h5.5L50.3,25.5z M52.4,20.7c-0.6,1.2-1.1,1.9-1.4,2.2c-0.3,0.3-0.9,1.1-2.5,1l0.1-0.9
		c1.3-0.4,2-2.2,2.4-3l-0.5-5.8l1,0h0.8l0.1,3.6l1.6-3.6h1.6L52.4,20.7z"/>
</g>
</svg>
