<svg id="Flag_US" xmlns="http://www.w3.org/2000/svg" width="25" height="25" viewBox="0 0 25 25">
  <path id="路径_44" data-name="路径 44" d="M23.1,2.726a12.927,12.927,0,0,1-1.009,1.962H1.043A12.927,12.927,0,0,1,.034,2.726Z" transform="translate(0.933 14.574)" fill="#fff"/>
  <path id="路径_45" data-name="路径 45" d="M24.33,2.657a11.382,11.382,0,0,1-.617,1.962H.629A11.382,11.382,0,0,1,.012,2.657Z" transform="translate(0.329 12.711)" fill="#b12233"/>
  <path id="路径_46" data-name="路径 46" d="M24.944,2.588a11.875,11.875,0,0,1-.309,1.962H.31A15.822,15.822,0,0,1,0,2.588Z" transform="translate(0.027 10.849)" fill="#fff"/>
  <path id="路径_47" data-name="路径 47" d="M21.09,2.794a12.959,12.959,0,0,1-1.511,1.962h-18A12.959,12.959,0,0,1,.07,2.794Z" transform="translate(1.92 16.409)" fill="#b12233"/>
  <path id="路径_48" data-name="路径 48" d="M13.382,2.931A12.179,12.179,0,0,1,6.809,4.893a12.273,12.273,0,0,1-6.6-1.962Z" transform="translate(5.705 20.107)" fill="#b12233"/>
  <path id="路径_49" data-name="路径 49" d="M18.074,2.863a13.118,13.118,0,0,1-2.345,1.962H2.469A15.424,15.424,0,0,1,.124,2.863Z" transform="translate(3.401 18.242)" fill="#fff"/>
  <path id="路径_50" data-name="路径 50" d="M18.074,4.139H.124A15.424,15.424,0,0,1,2.469,2.177h13.26a13.118,13.118,0,0,1,2.345,1.962" transform="translate(3.401 -0.215)" fill="#fff"/>
  <path id="路径_51" data-name="路径 51" d="M13.354,4.07H.209a8.507,8.507,0,0,1,1.22-.682L1.54,3.33l.416-.2.194-.085a12.05,12.05,0,0,1,4.631-.938A12.178,12.178,0,0,1,13.354,4.07" transform="translate(5.733 -2.108)" fill="#b12233"/>
  <path id="路径_52" data-name="路径 52" d="M21.09,4.179H.07l.336-.512.056-.057a13.1,13.1,0,0,1,1.12-1.365h18A11.452,11.452,0,0,1,21.09,4.179" transform="translate(1.92 1.617)" fill="#b12233"/>
  <path id="路径_53" data-name="路径 53" d="M24.33,4.344H.012A12.22,12.22,0,0,1,.629,2.382H23.713a12.219,12.219,0,0,1,.617,1.962" transform="translate(0.329 5.288)" fill="#b12233"/>
  <path id="路径_54" data-name="路径 54" d="M23.1,4.276H.034L.2,3.906a8.612,8.612,0,0,1,.448-.881l.392-.711H22.092A12.927,12.927,0,0,1,23.1,4.276" transform="translate(0.933 3.453)" fill="#fff"/>
  <path id="路径_55" data-name="路径 55" d="M24.944,4.413H0l.028-.227.084-.739c.056-.313.112-.654.2-1H24.636a11.875,11.875,0,0,1,.309,1.962" transform="translate(0.027 7.151)" fill="#fff"/>
  <path id="路径_56" data-name="路径 56" d="M25,3.487c0,.341,0,.654-.028.967H.028C0,4.14,0,3.828,0,3.487s0-.654.028-.967H24.972c.028.313.028.625.028.967" transform="translate(0 9.013)" fill="#b12233"/>
  <path id="路径_57" data-name="路径 57" d="M12.679,2.109V15.726H.057C.028,15.442,0,15.073,0,14.788c0-.37.028-.654.057-1l.028-.227a3.036,3.036,0,0,1,.085-.711c.028-.341.114-.682.171-1.023A17.627,17.627,0,0,1,1,9.87l.171-.341a8.42,8.42,0,0,1,.426-.881l.426-.682.341-.512L2.388,7.4A13.744,13.744,0,0,1,3.554,6,12.059,12.059,0,0,1,5.942,4.071,10.879,10.879,0,0,1,7.192,3.36L7.306,3.3l.455-.2.2-.085a12.35,12.35,0,0,1,4.719-.91" transform="translate(0 -2.081)" fill="#3c3b6d"/>
  <path id="路径_58" data-name="路径 58" d="M1.13,2.131l.171.54h.6l-.483.341.171.569L1.13,3.24l-.455.341.171-.569L.362,2.672h.6Z" transform="translate(9.792 -1.466)" fill="#fff"/>
  <path id="路径_59" data-name="路径 59" d="M1.361,3.165l.028.142-.171-.142-.284-.2-.284.2L.48,3.307l.028-.142.142-.4-.4-.284.114-.057h.4l.057-.2.2-.085.085.284h.6l-.483.341Z" transform="translate(6.821 -1.2)" fill="#fff"/>
  <path id="路径_60" data-name="路径 60" d="M1.13,2.227l.171.54h.6l-.483.341.171.569L1.13,3.336l-.455.341.171-.569L.362,2.767h.6Z" transform="translate(9.792 1.164)" fill="#fff"/>
  <path id="路径_61" data-name="路径 61" d="M1.017,2.227l.171.54h.6L1.3,3.109l.171.569-.455-.341-.455.341.171-.569L.249,2.767h.6Z" transform="translate(6.742 1.164)" fill="#fff"/>
  <path id="路径_62" data-name="路径 62" d="M.9,2.227l.171.54h.6l-.483.341.171.569L.9,3.336l-.455.341L.62,3.109.137,2.767h.6Z" transform="translate(3.693 1.164)" fill="#fff"/>
  <path id="路径_63" data-name="路径 63" d="M1.13,2.323l.171.54h.6L1.414,3.2l.171.54L1.13,3.432l-.455.313L.845,3.2.362,2.863h.6Z" transform="translate(9.792 3.706)" fill="#fff"/>
  <path id="路径_64" data-name="路径 64" d="M1.017,2.323l.171.54h.6L1.3,3.2l.171.54-.455-.313-.455.313L.733,3.2.249,2.863h.6Z" transform="translate(6.742 3.706)" fill="#fff"/>
  <path id="路径_65" data-name="路径 65" d="M.9,2.323l.171.54h.6L1.188,3.2l.171.54L.9,3.432l-.455.313L.62,3.2.137,2.863h.6Z" transform="translate(3.693 3.706)" fill="#fff"/>
  <path id="路径_66" data-name="路径 66" d="M.637,2.765l.171.569L.353,2.993.04,3.22c.142-.284.284-.6.455-.881l.028.114h.569Z" transform="translate(1.097 4.131)" fill="#fff"/>
  <path id="路径_67" data-name="路径 67" d="M1.13,2.419l.171.54h.6L1.414,3.3l.171.54L1.13,3.528l-.455.313L.845,3.3.362,2.959h.6Z" transform="translate(9.792 6.295)" fill="#fff"/>
  <path id="路径_68" data-name="路径 68" d="M1.017,2.419l.171.54h.6L1.3,3.3l.171.54-.455-.313-.455.313L.733,3.3.249,2.959h.6Z" transform="translate(6.742 6.295)" fill="#fff"/>
  <path id="路径_69" data-name="路径 69" d="M.9,2.419l.171.54h.6L1.188,3.3l.171.54L.9,3.528l-.455.313L.62,3.3.137,2.959h.6Z" transform="translate(3.693 6.295)" fill="#fff"/>
  <path id="路径_70" data-name="路径 70" d="M.791,2.419l.171.54h.6L1.076,3.3l.171.54L.791,3.528l-.455.313L.507,3.3.024,2.959h.6Z" transform="translate(0.65 6.295)" fill="#fff"/>
  <path id="路径_71" data-name="路径 71" d="M1.13,2.515l.171.54h.6L1.414,3.4l.171.569L1.13,3.624l-.455.341L.845,3.4.362,3.055h.6Z" transform="translate(9.792 8.887)" fill="#fff"/>
  <path id="路径_72" data-name="路径 72" d="M1.017,2.515l.171.54h.6L1.3,3.4l.171.569-.455-.341-.455.341L.733,3.4.249,3.055h.6Z" transform="translate(6.742 8.887)" fill="#fff"/>
  <path id="路径_73" data-name="路径 73" d="M.9,2.515l.171.54h.6L1.188,3.4l.171.569L.9,3.624l-.455.341L.62,3.4.137,3.055h.6Z" transform="translate(3.693 8.887)" fill="#fff"/>
  <path id="路径_74" data-name="路径 74" d="M.791,2.515l.171.54h.6L1.076,3.4l.171.569L.791,3.624l-.455.341L.507,3.4.024,3.055h.6Z" transform="translate(0.65 8.887)" fill="#fff"/>
  <path id="路径_75" data-name="路径 75" d="M1.046,2.467l.171.54h.6l-.483.341.171.569-.455-.341-.455.341.171-.569L.307,3.007H.875Z" transform="translate(8.294 7.591)" fill="#fff"/>
  <path id="路径_76" data-name="路径 76" d="M.961,2.467l.171.54h.6l-.483.341.171.569L.961,3.576l-.455.341.171-.569L.193,3.007h.6Z" transform="translate(5.218 7.591)" fill="#fff"/>
  <path id="路径_77" data-name="路径 77" d="M.848,2.467l.171.54h.6l-.483.341.171.569L.848,3.576l-.455.341.171-.569L.08,3.007h.6Z" transform="translate(2.197 7.591)" fill="#fff"/>
  <path id="路径_78" data-name="路径 78" d="M.059,2.827l.171.54L0,3.2a6.056,6.056,0,0,1,.085-.711H.514Z" transform="translate(0.055 8.103)" fill="#fff"/>
  <path id="路径_79" data-name="路径 79" d="M1.046,2.371l.171.54h.6l-.483.341.171.54-.455-.341-.455.341.171-.54L.307,2.911H.875Z" transform="translate(8.294 5.002)" fill="#fff"/>
  <path id="路径_80" data-name="路径 80" d="M.961,2.371l.171.54h.6l-.483.341.171.54L.961,3.452l-.455.341.171-.54L.193,2.911h.6Z" transform="translate(5.218 5.002)" fill="#fff"/>
  <path id="路径_81" data-name="路径 81" d="M.848,2.371l.171.54h.6l-.483.341.171.54L.848,3.452l-.455.341.171-.54L.08,2.911h.6Z" transform="translate(2.197 5.002)" fill="#fff"/>
  <path id="路径_82" data-name="路径 82" d="M1.046,2.275l.171.54h.6l-.483.341.171.569-.455-.341-.455.341.171-.569L.307,2.815H.875Z" transform="translate(8.294 2.41)" fill="#fff"/>
  <path id="路径_83" data-name="路径 83" d="M.961,2.275l.171.54h.6l-.483.341.171.569L.961,3.384l-.455.341.171-.569L.193,2.815h.6Z" transform="translate(5.218 2.41)" fill="#fff"/>
  <path id="路径_84" data-name="路径 84" d="M1.135,3.384l.114.341L.794,3.384H.765L.31,3.725l.114-.341.057-.227-.4-.284.028-.057H.595l.171-.54.2.54h.569l-.483.341Z" transform="translate(2.271 2.407)" fill="#fff"/>
  <path id="路径_85" data-name="路径 85" d="M1.046,2.179l.171.54h.6l-.483.341L1.5,3.6l-.455-.313L.591,3.6l.171-.54L.307,2.719H.875Z" transform="translate(8.294 -0.152)" fill="#fff"/>
  <path id="路径_86" data-name="路径 86" d="M.961,2.179l.171.54h.6l-.483.341.171.54L.961,3.288.506,3.6l.171-.54L.193,2.719h.6Z" transform="translate(5.218 -0.152)" fill="#fff"/>
</svg>
