<svg id="Flag_Cn" xmlns="http://www.w3.org/2000/svg" width="25" height="25" viewBox="0 0 25 25">
  <path id="路径_38" data-name="路径 38" d="M12.5,27.109A12.5,12.5,0,1,1,25,14.595,12.518,12.518,0,0,1,12.5,27.109" transform="translate(0 -2.109)" fill="#dd2911"/>
  <path id="路径_39" data-name="路径 39" d="M3.217,2.269l.733,2.226H6.288L4.4,5.875,5.1,8.1,3.217,6.72,1.329,8.1l.7-2.226L.146,4.495H2.484Z" transform="translate(3.936 2.212)" fill="#fedd19"/>
  <path id="路径_40" data-name="路径 40" d="M1.764,2.235,1.679,3l.733.31-.761.169-.085.789-.394-.676-.761.169.535-.563L.524,2.516l.733.31Z" transform="translate(11.108 1.304)" fill="#fedd19"/>
  <path id="路径_41" data-name="路径 41" d="M2.314,2.537l-.366.676.535.563-.761-.113-.366.676-.113-.789L.483,3.438l.7-.338-.113-.789.535.563Z" transform="translate(13.04 3.36)" fill="#fedd19"/>
  <path id="路径_42" data-name="路径 42" d="M2.512,3.126l-.62.479.282.733-.648-.451-.62.479.225-.733L.484,3.182l.761-.028.225-.733.254.733Z" transform="translate(13.075 6.346)" fill="#fedd19"/>
  <path id="路径_43" data-name="路径 43" d="M2.385,3.543l-.761.2L1.6,4.529l-.423-.648-.761.2.479-.62-.423-.62.733.254L1.68,2.5l-.028.761Z" transform="translate(11.143 8.478)" fill="#fedd19"/>
</svg>
