<svg id="Flag_Tw" xmlns="http://www.w3.org/2000/svg" width="25" height="25" viewBox="0 0 25 25">
  <path id="路径_23" data-name="路径 23" d="M25,14.608a12.5,12.5,0,1,1-12.514-12.5h1.459v.084A12.546,12.546,0,0,1,25,14.608" transform="translate(0 -2.108)" fill="#fd0302"/>
  <path id="路径_24" data-name="路径 24" d="M13.653,2.109V14.361H0A12.24,12.24,0,0,1,12.225,2.109Z" transform="translate(0 -2.082)" fill="#060593"/>
  <path id="路径_25" data-name="路径 25" d="M1.279,4.013.757,3.986l-.494.027L.757,2.2Z" transform="translate(7.123 0.327)" fill="#fff"/>
  <path id="路径_26" data-name="路径 26" d="M1.579,3.539A2.267,2.267,0,0,0,.7,4.088L.2,2.22Z" transform="translate(5.554 0.857)" fill="#fff"/>
  <path id="路径_27" data-name="路径 27" d="M2.017,2.769a2.577,2.577,0,0,0-.522.879L.149,2.275Z" transform="translate(4.039 2.411)" fill="#fff"/>
  <path id="路径_28" data-name="路径 28" d="M1.916,2.854l.055.522L.13,2.854l1.841-.522-.055.522" transform="translate(3.441 3.951)" fill="#fff"/>
  <path id="路径_29" data-name="路径 29" d="M2.017,3.257.149,3.752,1.5,2.378a2.577,2.577,0,0,0,.522.879" transform="translate(4.039 5.198)" fill="#fff"/>
  <path id="路径_30" data-name="路径 30" d="M1.579,2.937.2,4.283.7,2.415a2.205,2.205,0,0,0,.879.522" transform="translate(5.554 6.203)" fill="#fff"/>
  <path id="路径_31" data-name="路径 31" d="M1.279,2.436.757,4.277.263,2.436l.494.055.522-.055" transform="translate(7.123 6.772)" fill="#fff"/>
  <path id="路径_32" data-name="路径 32" d="M1.681,4.283.307,2.937a2.205,2.205,0,0,0,.879-.522Z" transform="translate(8.317 6.203)" fill="#fff"/>
  <path id="路径_33" data-name="路径 33" d="M2.213,3.751.345,3.256a2.205,2.205,0,0,0,.522-.879Z" transform="translate(9.352 5.171)" fill="#fff"/>
  <path id="路径_34" data-name="路径 34" d="M.366,3.349l.055-.522L.366,2.333l1.868.494Z" transform="translate(9.921 3.978)" fill="#fff"/>
  <path id="路径_35" data-name="路径 35" d="M2.213,2.275.867,3.649a2.205,2.205,0,0,0-.522-.879Z" transform="translate(9.352 2.411)" fill="#fff"/>
  <path id="路径_36" data-name="路径 36" d="M1.681,2.219,1.186,4.087a2.205,2.205,0,0,0-.879-.522Z" transform="translate(8.317 0.83)" fill="#fff"/>
  <path id="路径_37" data-name="路径 37" d="M4.435,4.389A2.115,2.115,0,1,1,2.319,2.274,2.116,2.116,0,0,1,4.435,4.389" transform="translate(5.545 2.398)" fill="#fff"/>
</svg>
