<svg xmlns="http://www.w3.org/2000/svg" width="50" height="42.658" viewBox="0 0 50 42.658">
  <g id="DigiFlow_logo_350x80_White" transform="translate(-0.7 -2.9)">
    <g id="组_40" data-name="组 40" transform="translate(0.7 2.9)">
      <g id="组_30" data-name="组 30">
        <path id="路径_18" data-name="路径 18" d="M30.648,10.4l-4.814,4.436a17.284,17.284,0,0,1,1.688,1.194c3.189,2.73,4.814,6.6,4.814,11.432,0,4.721-1.563,8.474-4.564,11.148-3.064,2.787-7.19,4.152-12.379,4.152H7.265V31.728L.7,37.7V48.45H13.767a41.287,41.287,0,0,0,9.378-.853,22.873,22.873,0,0,0,6.565-2.844A20.593,20.593,0,0,0,36.65,37.3a20.3,20.3,0,0,0,2.438-9.839c0-6.313-2.126-11.489-6.44-15.413A13.749,13.749,0,0,0,30.648,10.4Z" transform="translate(-0.7 -5.792)" fill="#cc9631"/>
        <path id="路径_19" data-name="路径 19" d="M14.009,9.167a23.8,23.8,0,0,1,7.557,1.167L26.6,5.3A24.232,24.232,0,0,0,15.545,2.9H.8V31.161l5.529-5.529.86-.86L17.511,14.45H7.189V9.228h6.819Z" transform="translate(-0.739 -2.9)" fill="#e2be53"/>
      </g>
      <g id="组_39" data-name="组 39" transform="translate(19.589 21.032)">
        <g id="组_31" data-name="组 31" transform="translate(0 4.178)">
          <rect id="矩形_101" data-name="矩形 101" width="4.546" height="4.546" fill="#f7b52c"/>
        </g>
        <g id="组_32" data-name="组 32" transform="translate(6.881 13.639)">
          <rect id="矩形_102" data-name="矩形 102" width="3.932" height="3.932" fill="#f7b52c"/>
        </g>
        <g id="组_33" data-name="组 33" transform="translate(11.919 6.758)">
          <rect id="矩形_103" data-name="矩形 103" width="3.563" height="3.563" fill="#f7b52c"/>
        </g>
        <g id="组_34" data-name="组 34" transform="translate(19.168 6.758)">
          <rect id="矩形_104" data-name="矩形 104" width="3.563" height="3.563" fill="#f7b52c"/>
        </g>
        <g id="组_35" data-name="组 35" transform="translate(14.192 13.332)">
          <rect id="矩形_105" data-name="矩形 105" width="3.563" height="3.563" fill="#f7b52c"/>
        </g>
        <g id="组_36" data-name="组 36" transform="translate(19.168 18.062)">
          <rect id="矩形_106" data-name="矩形 106" width="3.563" height="3.563" fill="#f7b52c"/>
        </g>
        <g id="组_37" data-name="组 37" transform="translate(5.284)">
          <rect id="矩形_107" data-name="矩形 107" width="6.082" height="6.082" fill="#f7b52c"/>
        </g>
        <g id="组_38" data-name="组 38" transform="translate(24.329 11.489)">
          <rect id="矩形_108" data-name="矩形 108" width="6.082" height="6.082" fill="#f7b52c"/>
        </g>
      </g>
    </g>
  </g>
</svg>
