<svg xmlns="http://www.w3.org/2000/svg" width="170" height="34.07" viewBox="0 0 170 34.07">
  <g id="DigiFlow_logo_350x80_White" transform="translate(-0.7 -2.9)">
    <g id="组_29" data-name="组 29" transform="translate(43.04 13.845)">
      <g id="组_17" data-name="组 17">
        <g id="组_16" data-name="组 16">
          <path id="路径_1" data-name="路径 1" d="M112.895,37.715a29.1,29.1,0,0,1-1.94,8.355,9.487,9.487,0,0,0,3.481,3.879,6.514,6.514,0,0,0-1.492,1.79,10.211,10.211,0,0,1-3.183-3.481,12.365,12.365,0,0,1-3.978,3.879,13,13,0,0,0-.995-1.591L103.4,51.789a21.017,21.017,0,0,0-2.835-1.492,23.252,23.252,0,0,1-6.216,1.641,7.858,7.858,0,0,0-.945-1.691,28.606,28.606,0,0,0,4.675-.995c-.995-.4-2.039-.746-2.984-1.044.3-.348.647-.8.995-1.293l-1.989.1-.2-1.741c.995-.05,2.138-.1,3.431-.2a6.343,6.343,0,0,0,.746-1.392H94.842V39.654h3.979v-.647H95.439V36.67H93.748V34.83h1.691V32.543h3.382V31.2h1.989v1.343h3.531V34.83h1.492v1.84h-1.492v2.337H100.81v.647h4.078V41.3c1.442-2.387,2.188-6.167,2.636-9.946l2.188.3c-.2,1.243-.348,2.487-.6,3.68h5.222v2.337h-1.442ZM97.03,42.191h1.79v-.8H97.03Zm.6-7.808v.7H98.87v-.7Zm1.194,3.083v-.8H97.577v.8Zm-.6,9.946c.746.249,1.492.547,2.188.8A4.046,4.046,0,0,0,102,46.617l-3.382.2Zm6.017-.9a4.957,4.957,0,0,1-1.691,2.636c.8.348,1.492.7,2.138,1.044a10.179,10.179,0,0,0,3.978-4.227,25.824,25.824,0,0,1-1.293-4.426c-.249.6-.547,1.094-.8,1.641a12.765,12.765,0,0,0-1.641-1.641v2.288h-4.426c-.249.4-.448.8-.7,1.293l2.636-.1v-.746h2.039v.7l.7-.05v1.591ZM100.81,34.383v.7H102.1v-.7Zm1.293,3.083v-.8H100.81v.8Zm-1.293,3.929v.8h1.741v-.8Zm7.808-3.68a49.138,49.138,0,0,0,1.094,5.272,32.163,32.163,0,0,0,.945-5.272Z" transform="translate(-93.4 -31.001)" fill="#fff"/>
          <path id="路径_2" data-name="路径 2" d="M150.509,32.043c-.6,1.492-1.293,3.034-2.039,4.476V51.886h-2.685V40.647c-.448.6-.945,1.094-1.392,1.641A23.636,23.636,0,0,0,143,39.553a24.454,24.454,0,0,0,5.073-8.305Zm12.93,16.411v2.536H149.565V48.455h7.758a76.07,76.07,0,0,0,1.79-10.344l2.735.4c-.6,3.332-1.392,7.211-2.138,9.946Zm-7.907-13.577a26.045,26.045,0,0,0-.995-3.431l2.487-.647a20.459,20.459,0,0,1,1.094,3.382l-2.337.647h6.813v2.536H150.31V34.828h5.172v.05Zm-2.586,12.93c-.2-2.337-.7-6.167-1.293-9.151l2.387-.547a83.67,83.67,0,0,1,1.492,8.952Z" transform="translate(-118.333 -30.8)" fill="#fff"/>
          <path id="路径_3" data-name="路径 3" d="M208.06,48.656c-.3.448-.547.945-.8,1.343h4.327V51.59H192.743V50h4.128a11.163,11.163,0,0,0-.646-1.343l1.243-.3h-3.083V46.766h6.465v-.8h-3.332v-.945c-1.492.448-3.133.8-4.675,1.094a8.005,8.005,0,0,0-1.343-1.94c4.028-.6,8.355-1.691,10.642-3.481l1.392.7V37.516h2.288v4.078h-2.089l.448.249a3.507,3.507,0,0,0-.448.348,34.713,34.713,0,0,0,9.151,1.989,6.435,6.435,0,0,0-1.343,1.84c-1.591-.3-3.133-.6-4.675-1.044v.945h-3.431v.8h6.515v1.591h-3.382ZM195.23,37.466a17.827,17.827,0,0,0-3.382-1.641l1.094-1.591a21.593,21.593,0,0,1,3.382,1.442Zm-2.785,4.376c1.044-1.243,2.636-3.133,3.879-4.923l1.442,1.591c-1.094,1.641-2.387,3.431-3.68,5.073Zm4.177-7.261a21.449,21.449,0,0,0-3.382-1.591l1.094-1.591a32.716,32.716,0,0,1,3.431,1.392Zm5.272,4.028c0,1.293-.448,2.984-3.531,3.78a8.367,8.367,0,0,0-1.492-1.741c2.636-.448,2.884-1.392,2.884-2.138v-.945h2.138V38.61Zm7.112-1.194a1.748,1.748,0,0,0-.348-.448c-7.261.3-8.355.348-9.051.547a6.76,6.76,0,0,0-.746-1.641,3.665,3.665,0,0,0,1.492-.8,5.973,5.973,0,0,0,.746-.647h-3.083V32.692h4.724c.4-.448.8-1.044,1.144-1.492l2.337.7a3.819,3.819,0,0,1-.746.8h6.565v1.741h-3.083a18.208,18.208,0,0,1,2.188,2.288l-1.392.746h.05v2.487c0,.448.05.647.348.647h.945a6.855,6.855,0,0,0,1.094-.1c.05.6.1,1.343.2,1.84a4.861,4.861,0,0,1-1.293.1H209.8c-1.84,0-2.288-.746-2.288-2.536V37.416h1.492ZM198.512,48.357a7.058,7.058,0,0,1,.8,1.641H200.8V48.357Zm6.565-3.879a22.862,22.862,0,0,1-3.034-1.243,23.623,23.623,0,0,1-2.785,1.243Zm2.039-9.1a10.244,10.244,0,0,0-.8-.746l.6-.3h-3.083a13.042,13.042,0,0,1-1.243,1.094Zm-3.73,12.98V50h1.641a9.852,9.852,0,0,0,.8-1.641Z" transform="translate(-142.714 -31.001)" fill="#fff"/>
          <path id="路径_4" data-name="路径 4" d="M247.908,61.93a5.2,5.2,0,0,1-1.392,2.536,6.667,6.667,0,0,0,1.691.647,3.372,3.372,0,0,0-.647.9,4.549,4.549,0,0,1-1.84-.9,5.583,5.583,0,0,1-1.84.8,4.333,4.333,0,0,0-.547-.9.684.684,0,0,1-.3.647,1.729,1.729,0,0,1-1.094.2,2.231,2.231,0,0,0-.249-.945h.646c.1,0,.1-.05.1-.1V63.123a7.358,7.358,0,0,0-.646.4l-.249-.647A11.349,11.349,0,0,1,241,65.908a3.216,3.216,0,0,0-.8-.448,12.694,12.694,0,0,0,.448-4.128V58.25h2.685v2.536a1.611,1.611,0,0,0,1.044-1.641V58.2h2.835v1.84c0,.249,0,.348.1.348h.348a1.1,1.1,0,0,0,.4-.05c0,.249.05.6.05.8a1.235,1.235,0,0,1-.448.05h-.448c-.8,0-.995-.348-.995-1.144v-.9h-.995a2.454,2.454,0,0,1-1.392,2.337,3.532,3.532,0,0,0-.6-.647v4.078a5.545,5.545,0,0,0,1.591-.6,5.833,5.833,0,0,1-1.094-1.691l.4-.1h-.547v-.945h3.481l.2-.05Zm-6.316-.547v1.144a4.115,4.115,0,0,0,.9-.348v-.945l-.348.3a2.9,2.9,0,0,0-.547-.646Zm0-2.138v1.044l.249-.2a7.921,7.921,0,0,1,.646.647V59.244h-.9Zm3.183,3.431a4.575,4.575,0,0,0,.945,1.243,4.825,4.825,0,0,0,.945-1.243Z" transform="translate(-167.195 -44.574)" fill="#fff"/>
          <path id="路径_5" data-name="路径 5" d="M261.684,58.349c-.249.6-.547,1.243-.8,1.79v5.868h-.995V61.681a7.445,7.445,0,0,1-.547.647,5.273,5.273,0,0,0-.547-1.044,10.539,10.539,0,0,0,1.989-3.183Zm3.78-.149a4.645,4.645,0,0,0,1.591,2.636,10.616,10.616,0,0,0-.647,1.094l-.348-.348v.3c-.1,2.387-.2,3.332-.448,3.68a.85.85,0,0,1-.647.348,5.415,5.415,0,0,1-.945.05,1.637,1.637,0,0,0-.3-.945,4.376,4.376,0,0,0,.7.05.365.365,0,0,0,.3-.1,7.47,7.47,0,0,0,.3-2.487h-1.094c-.249,1.741-.8,2.835-2.039,3.531a2.449,2.449,0,0,0-.7-.746,3.165,3.165,0,0,0,1.741-2.785h-.8v-.9l-.348.348a5.333,5.333,0,0,0-.646-.945,4.818,4.818,0,0,0,1.492-2.536l.995.249a7.055,7.055,0,0,1-1.492,2.835h3.73a6.393,6.393,0,0,1-1.243-2.288h-.746v-.995h1.641V58.2Z" transform="translate(-176.545 -44.523)" fill="#fff"/>
          <path id="路径_6" data-name="路径 6" d="M281.383,59.84c-.1.249-.249.448-.348.7h3.978v4.227c0,.547-.1.746-.448.945a3.075,3.075,0,0,1-1.492.2,7.552,7.552,0,0,0-.3-.995h1.094a.182.182,0,0,0,.2-.2v-.547h-3.183a3.02,3.02,0,0,1-.945,1.691,2.142,2.142,0,0,0-.746-.746,2.886,2.886,0,0,0,.8-2.337v-.7a9.427,9.427,0,0,1-1.044.945c-.2-.249-.448-.6-.647-.8a5.906,5.906,0,0,0,2.039-2.387H278.5v-.9h2.288c.1-.348.249-.7.348-1.044l1.044.249a3.77,3.77,0,0,1-.3.8h4.177v.945h-4.675Zm2.636,3.531v-.6h-3.083v.6Zm0-1.94h-3.083v.5h3.083Z" transform="translate(-186.347 -44.423)" fill="#fff"/>
          <path id="路径_7" data-name="路径 7" d="M300.635,58.8c-.249.7-.547,1.591-.746,2.288a2.65,2.65,0,0,1,.647,1.79c0,.547-.1.945-.4,1.094a.741.741,0,0,1-.448.2h-.6a1.535,1.535,0,0,0-.249-.9h.348c.05,0,.2,0,.249-.05a.7.7,0,0,0,.2-.547,2.449,2.449,0,0,0-.6-1.591,11.779,11.779,0,0,0,.448-1.79h-.8v6.763h-.9V58.55h2.039l.1-.05Zm4.575,4.426a7.96,7.96,0,0,1-1.243.9,3.53,3.53,0,0,0,1.392,1.144,3.1,3.1,0,0,0-.7.9,5.292,5.292,0,0,1-2.387-3.73h-.547v2.387l1.144-.3a5.709,5.709,0,0,0,.05.945,7.961,7.961,0,0,0-2.188.7,2.973,2.973,0,0,0-.4-.8.8.8,0,0,0,.4-.746V58.55h3.829v3.978h-1.442c.1.348.249.647.348.945a8.965,8.965,0,0,0,.995-.9ZM301.828,59.4v.647h1.84V59.4Zm0,2.138h1.84v-.7h-1.84Z" transform="translate(-196.149 -44.724)" fill="#fff"/>
          <path id="路径_8" data-name="路径 8" d="M319.081,58.5a14.038,14.038,0,0,1-2.536,3.73,8.255,8.255,0,0,0-.945-.9,8.748,8.748,0,0,0,2.337-3.233Zm2.437,3.978c.7.945,1.442,2.138,1.94,2.984l-1.044.6a6.414,6.414,0,0,0-.448-.8c-4.128.348-4.724.348-5.122.547-.05-.249-.3-.8-.4-1.094.3-.05.547-.3.9-.7a13.82,13.82,0,0,0,2.089-3.233l1.144.547a13.852,13.852,0,0,1-2.337,3.183l3.133-.249a12.726,12.726,0,0,1-.8-1.243Zm.149-4.327a5.274,5.274,0,0,0,2.188,3.034,3.983,3.983,0,0,0-.746,1.044,7.326,7.326,0,0,1-2.188-3.034h-1.392V58.15Z" transform="translate(-205.097 -44.523)" fill="#fff"/>
          <path id="路径_9" data-name="路径 9" d="M342.762,64.966c0,.6-.1.9-.448,1.044a3.18,3.18,0,0,1-1.691.2,4.654,4.654,0,0,0-.348-1.094,10.137,10.137,0,0,0,1.243,0c.2,0,.249-.05.249-.2V59.695H335.8V58.7h7.012l-.05,6.266Zm-1.94-3.73H335.8v-.9h5.023Zm-3.581,3.581v.646h-.995V61.982h4.128v2.884h-3.133Zm0-2.039v1.144h2.138V62.778Z" transform="translate(-215.252 -44.825)" fill="#fff"/>
        </g>
      </g>
      <g id="组_28" data-name="组 28" transform="translate(73.602 0.497)">
        <g id="组_27" data-name="组 27">
          <g id="组_18" data-name="组 18">
            <path id="路径_10" data-name="路径 10" d="M241.4,31.8h3.979a7.145,7.145,0,0,1,2.039.2,4.288,4.288,0,0,1,1.641.995,4.572,4.572,0,0,1,.995,1.741,7.316,7.316,0,0,1,.348,2.487,6.326,6.326,0,0,1-.348,2.288,4.842,4.842,0,0,1-1.144,1.84,4.75,4.75,0,0,1-1.492.9,5.086,5.086,0,0,1-1.94.249H241.4V31.8Zm2.138,1.79V40.6h1.641a7.074,7.074,0,0,0,1.293-.1,1.909,1.909,0,0,0,.9-.448,2.887,2.887,0,0,0,.6-1.044,8.49,8.49,0,0,0,.249-1.989,5.4,5.4,0,0,0-.249-1.94,3.107,3.107,0,0,0-.646-1.044,2.722,2.722,0,0,0-.995-.547,11.863,11.863,0,0,0-1.741-.1h-.995v.2Z" transform="translate(-241.4 -31.8)" fill="#f7b52c"/>
          </g>
          <g id="组_19" data-name="组 19" transform="translate(10.444 2.685)">
            <path id="路径_11" data-name="路径 11" d="M262.4,45.157V37.2h1.641v7.957Z" transform="translate(-262.4 -37.2)" fill="#f7b52c"/>
          </g>
          <g id="组_20" data-name="组 20" transform="translate(13.328 2.536)">
            <path id="路径_12" data-name="路径 12" d="M272.179,42.072l.9-1.343h2.536v3.183a3.986,3.986,0,0,1-1.442.9,5.333,5.333,0,0,1-1.94.348,4.46,4.46,0,0,1-2.188-.547,3.351,3.351,0,0,1-1.392-1.492,4.988,4.988,0,0,1-.448-2.138,4.461,4.461,0,0,1,.547-2.188,3.908,3.908,0,0,1,1.492-1.492,3.864,3.864,0,0,1,1.94-.4,4.069,4.069,0,0,1,2.337.647,2.6,2.6,0,0,1,1.094,1.741l-1.641.3a1.805,1.805,0,0,0-.646-.945,1.743,1.743,0,0,0-1.144-.348,2.208,2.208,0,0,0-1.691.7,2.888,2.888,0,0,0-.647,1.989,3.225,3.225,0,0,0,.647,2.138,2.175,2.175,0,0,0,1.641.7,2.227,2.227,0,0,0,.995-.2,3.761,3.761,0,0,0,.9-.448v-.995A12.045,12.045,0,0,0,272.179,42.072Z" transform="translate(-268.2 -36.9)" fill="#f7b52c"/>
          </g>
          <g id="组_21" data-name="组 21" transform="translate(22.18 2.685)">
            <path id="路径_13" data-name="路径 13" d="M286,45.157V37.2h1.641v7.957Z" transform="translate(-286 -37.2)" fill="#f7b52c"/>
          </g>
          <g id="组_22" data-name="组 22" transform="translate(25.413 2.685)">
            <path id="路径_14" data-name="路径 14" d="M292.5,45.157V37.2h3.979l-.9,1.343h-1.442v1.94h1.79l-.9,1.343h-.945v3.382C294.091,45.157,292.5,45.157,292.5,45.157Z" transform="translate(-292.5 -37.2)" fill="#f7b52c"/>
          </g>
          <g id="组_23" data-name="组 23" transform="translate(30.386 2.735)">
            <path id="路径_15" data-name="路径 15" d="M302.5,45.207V37.3h1.641v6.565h2.039l-.9,1.343Z" transform="translate(-302.5 -37.3)" fill="#f7b52c"/>
          </g>
          <g id="组_24" data-name="组 24" transform="translate(43.515 2.685)">
            <path id="路径_16" data-name="路径 16" d="M330.84,45.157,328.9,37.2h1.641l1.243,5.47,1.442-5.47h1.94l1.392,5.57L337.8,37.2h1.641l-1.94,7.957h-1.691l-1.591-5.968-1.591,5.968Z" transform="translate(-328.9 -37.2)" fill="#f7b52c"/>
          </g>
          <g id="组_26" data-name="组 26" transform="translate(34.812 2.586)">
            <g id="组_25" data-name="组 25">
              <path id="路径_17" data-name="路径 17" d="M315.378,37a3.978,3.978,0,1,0,3.979,3.978A4.056,4.056,0,0,0,315.378,37Zm0,6.614a2.636,2.636,0,0,1,0-5.272,2.591,2.591,0,0,1,2.636,2.636A2.686,2.686,0,0,1,315.378,43.614Zm0-.995a1.641,1.641,0,1,1,1.641-1.641A1.688,1.688,0,0,1,315.378,42.62Z" transform="translate(-311.4 -37)" fill="#f7b52c"/>
            </g>
          </g>
        </g>
      </g>
    </g>
    <g id="组_40" data-name="组 40" transform="translate(0.7 2.9)">
      <g id="组_30" data-name="组 30">
        <path id="路径_18" data-name="路径 18" d="M24.521,10.4l-3.829,3.537a13.748,13.748,0,0,1,1.343.952,11.447,11.447,0,0,1,3.829,9.116,11.377,11.377,0,0,1-3.63,8.889C19.8,35.116,16.515,36.2,12.387,36.2H5.922v-8.8L.7,32.169V40.74H11.094a32.763,32.763,0,0,0,7.46-.68,18.17,18.17,0,0,0,5.222-2.268,16.4,16.4,0,0,0,5.52-5.941,16.215,16.215,0,0,0,1.94-7.846,15.875,15.875,0,0,0-5.122-12.29A10.942,10.942,0,0,0,24.521,10.4Z" transform="translate(-0.7 -6.67)" fill="#cc9631"/>
        <path id="路径_19" data-name="路径 19" d="M11.492,7.973a19.263,19.263,0,0,1,6.117.945L21.687,4.84A19.615,19.615,0,0,0,12.735,2.9H.8V25.776L5.276,21.3l.7-.7,8.355-8.355H5.972V8.022h5.52Z" transform="translate(-0.75 -2.9)" fill="#e2be53"/>
      </g>
      <g id="组_39" data-name="组 39" transform="translate(15.317 16.564)">
        <g id="组_31" data-name="组 31" transform="translate(0 3.382)">
          <rect id="矩形_101" data-name="矩形 101" width="3.68" height="3.68" fill="#f7b52c"/>
        </g>
        <g id="组_32" data-name="组 32" transform="translate(5.57 11.04)">
          <rect id="矩形_102" data-name="矩形 102" width="3.183" height="3.183" fill="#f7b52c"/>
        </g>
        <g id="组_33" data-name="组 33" transform="translate(9.648 5.47)">
          <rect id="矩形_103" data-name="矩形 103" width="2.884" height="2.884" fill="#f7b52c"/>
        </g>
        <g id="组_34" data-name="组 34" transform="translate(15.516 5.47)">
          <rect id="矩形_104" data-name="矩形 104" width="2.884" height="2.884" fill="#f7b52c"/>
        </g>
        <g id="组_35" data-name="组 35" transform="translate(11.488 10.792)">
          <rect id="矩形_105" data-name="矩形 105" width="2.884" height="2.884" fill="#f7b52c"/>
        </g>
        <g id="组_36" data-name="组 36" transform="translate(15.516 14.621)">
          <rect id="矩形_106" data-name="矩形 106" width="2.884" height="2.884" fill="#f7b52c"/>
        </g>
        <g id="组_37" data-name="组 37" transform="translate(4.277)">
          <rect id="矩形_107" data-name="矩形 107" width="4.923" height="4.923" fill="#f7b52c"/>
        </g>
        <g id="组_38" data-name="组 38" transform="translate(19.694 9.3)">
          <rect id="矩形_108" data-name="矩形 108" width="4.923" height="4.923" fill="#f7b52c"/>
        </g>
      </g>
    </g>
  </g>
</svg>
