<svg xmlns="http://www.w3.org/2000/svg" width="170" height="36.316" viewBox="0 0 170 36.316">
  <g id="DigiFlow_logo_350x80" transform="translate(-2.5 -3.2)">
    <g id="组_46" data-name="组 46" transform="translate(47.336 16.804)">
      <g id="组_42" data-name="组 42">
        <g id="组_41" data-name="组 41">
          <path id="路径_89" data-name="路径 89" d="M113.157,37.772a29.951,29.951,0,0,1-1.876,8.2,9.359,9.359,0,0,0,3.456,3.851,6.609,6.609,0,0,0-1.481,1.777,10.654,10.654,0,0,1-3.16-3.456,12.631,12.631,0,0,1-3.9,3.851,8.775,8.775,0,0,0-.987-1.58L103.825,51.6a20.865,20.865,0,0,0-2.814-1.481,23.286,23.286,0,0,1-6.073,1.629A6.667,6.667,0,0,0,94,50.115a24.227,24.227,0,0,0,4.592-.987,25.354,25.354,0,0,0-2.913-.987,9.627,9.627,0,0,0,.938-1.284l-1.975.1-.2-1.728c.938-.049,2.074-.1,3.357-.148a12.421,12.421,0,0,0,.741-1.333H95.333V39.8h3.9V39.2H95.926V36.932H94.3V35.106h1.629V32.933h3.308V31.6h1.975v1.333h3.506v2.172H106.2v1.827h-1.481V39.2h-3.506V39.8h4v1.58c1.432-2.321,2.172-6.024,2.567-9.776l2.172.3c-.148,1.234-.346,2.419-.543,3.6h5.135v2.271Zm-15.6,4.394h1.777v-.79H97.555Zm.592-7.653V35.2h1.185v-.691Zm1.185,3.061v-.79H98.147v.79ZM98.74,47.3c.741.247,1.481.494,2.172.79a4.069,4.069,0,0,0,1.531-1.531l-3.308.2Zm5.925-.889a4.817,4.817,0,0,1-1.629,2.567c.79.346,1.481.691,2.074.987a9.459,9.459,0,0,0,3.851-4.147,30.27,30.27,0,0,1-1.284-4.345,15.989,15.989,0,0,1-.839,1.58,11.937,11.937,0,0,0-1.58-1.58V43.7h-4.345c-.2.395-.444.839-.691,1.284l2.567-.148v-.691h2.024v.691l.691-.049v1.629Zm-3.357-11.9V35.2h1.284v-.691Zm1.234,3.061v-.79h-1.284v.79Zm-1.234,3.8v.79h1.728v-.79Zm7.653-3.6a40.812,40.812,0,0,0,1.086,5.234,30.125,30.125,0,0,0,.938-5.234Z" transform="translate(-94 -31.254)" fill="#4d4d4d"/>
          <path id="路径_90" data-name="路径 90" d="M150.406,32.036a31.906,31.906,0,0,1-2.024,4.394V51.489h-2.617V40.528c-.444.543-.938,1.086-1.382,1.629A17.61,17.61,0,0,0,143,39.442a22.647,22.647,0,0,0,4.937-8.147ZM163.1,48.181V50.7H149.468V48.181h7.554A72.789,72.789,0,0,0,158.8,38.01l2.716.395a93.52,93.52,0,0,1-2.123,9.776ZM155.344,34.85a24.763,24.763,0,0,0-.938-3.357l2.469-.592a21.448,21.448,0,0,1,1.086,3.308l-2.271.642H162.4v2.518h-12.1V34.85Zm-2.567,12.739c-.2-2.271-.691-6.073-1.284-8.986l2.37-.543a79.651,79.651,0,0,1,1.481,8.789Z" transform="translate(-118.807 -30.9)" fill="#4d4d4d"/>
          <path id="路径_91" data-name="路径 91" d="M207.244,48.232c-.3.494-.543.938-.79,1.284h4.2V51.1H192.185v-1.58h4.049a7.781,7.781,0,0,0-.642-1.284l1.234-.3h-3.061V46.4h6.32v-.79h-3.16v-.889a36.5,36.5,0,0,1-4.592,1.086A7.334,7.334,0,0,0,191,43.936c3.95-.543,8.245-1.679,10.467-3.407l1.382.691v-3.8h2.222v3.9H203l.444.2a2.713,2.713,0,0,1-.444.346,33.776,33.776,0,0,0,8.937,1.926,5.606,5.606,0,0,0-1.284,1.827c-1.531-.3-3.061-.592-4.592-.987v.938H202.7v.79h6.369v1.531h-3.308ZM194.7,37.221a15.864,15.864,0,0,0-3.308-1.58l1.086-1.531a18.984,18.984,0,0,1,3.308,1.432Zm-2.765,4.3c1.037-1.185,2.567-3.061,3.851-4.839l1.432,1.531c-1.086,1.629-2.37,3.407-3.555,4.937Zm4.1-7.11a25.979,25.979,0,0,0-3.308-1.58l1.086-1.58a21.518,21.518,0,0,1,3.357,1.382Zm5.135,3.95c0,1.284-.444,2.913-3.506,3.7a6.835,6.835,0,0,0-1.481-1.679c2.567-.494,2.864-1.382,2.864-2.123V37.32h2.123Zm7.011-1.136c-.1-.148-.247-.346-.346-.494-7.159.247-8.2.346-8.937.543-.148-.346-.494-1.185-.741-1.629a3.639,3.639,0,0,0,1.481-.79c.2-.148.395-.346.741-.642h-3.012V32.481h4.641c.395-.494.79-.987,1.136-1.481l2.321.691c-.247.3-.494.543-.741.839h6.468v1.679h-3.012a22.289,22.289,0,0,1,2.172,2.222l-1.382.741h.049v2.469c0,.494.049.642.346.642h.889a3.85,3.85,0,0,0,1.086-.148c.049.543.1,1.284.2,1.827a4.445,4.445,0,0,1-1.234.148h-1.284c-1.827,0-2.222-.741-2.222-2.518V37.172h1.382Zm-10.27,10.714a9.782,9.782,0,0,1,.79,1.629h1.481V47.935Zm6.419-3.8a22.076,22.076,0,0,1-2.962-1.234,28.976,28.976,0,0,1-2.765,1.234Zm2.024-8.937c-.247-.247-.543-.494-.79-.741l.543-.3h-3.061c-.4.395-.79.741-1.185,1.086ZM202.7,47.935v1.629h1.58a16.226,16.226,0,0,0,.79-1.629Z" transform="translate(-143.107 -30.951)" fill="#4d4d4d"/>
          <path id="路径_92" data-name="路径 92" d="M246.7,61.706a5,5,0,0,1-1.383,2.518,8,8,0,0,0,1.629.642,4.108,4.108,0,0,0-.642.889,6.89,6.89,0,0,1-1.827-.839,6.811,6.811,0,0,1-1.827.79,2.89,2.89,0,0,0-.494-.839.88.88,0,0,1-.3.642,2.042,2.042,0,0,1-1.037.2,6.579,6.579,0,0,0-.247-.938h.592a.131.131,0,0,0,.148-.148V62.94c-.247.148-.444.3-.642.395l-.247-.592a9.609,9.609,0,0,1-.543,3.012,6.371,6.371,0,0,0-.79-.444,12.305,12.305,0,0,0,.444-4.049V58.2h2.666v2.518a1.611,1.611,0,0,0,1.037-1.58v-.889h2.814v1.827c0,.247,0,.346.1.346h.346c.1,0,.3-.049.4-.049.049.247.049.592.1.79a1.522,1.522,0,0,1-.494.049h-.444c-.79,0-.938-.346-.938-1.136v-.987h-.987A2.36,2.36,0,0,1,242.8,61.36a6.467,6.467,0,0,0-.592-.642v4.049a7.484,7.484,0,0,0,1.58-.592,7.213,7.213,0,0,1-1.086-1.629l.395-.148h-.592v-.938h3.407l.2-.049Zm-6.221-.494a9.123,9.123,0,0,1-.049,1.136,9.322,9.322,0,0,1,.889-.3v-.938l-.346.247c-.1-.148-.3-.395-.494-.642Zm0-2.123v1.037l.247-.148a3.659,3.659,0,0,1,.592.642V59.138h-.839Zm3.111,3.357a3.562,3.562,0,0,0,.938,1.185,4.148,4.148,0,0,0,.889-1.185Z" transform="translate(-167.458 -44.721)" fill="#4d4d4d"/>
          <path id="路径_93" data-name="路径 93" d="M260.364,57.846a18.411,18.411,0,0,1-.79,1.728V65.3h-.987V61.055a7.387,7.387,0,0,1-.543.642,5.233,5.233,0,0,0-.543-1.037,9.021,9.021,0,0,0,1.926-3.16Zm3.7-.1a4.688,4.688,0,0,0,1.531,2.567A3.832,3.832,0,0,0,265,61.4a2.28,2.28,0,0,1-.346-.346v.3c-.1,2.37-.2,3.259-.444,3.555a.753.753,0,0,1-.592.346,4.821,4.821,0,0,1-.938.049,2.636,2.636,0,0,0-.247-.889,4.035,4.035,0,0,0,.691.049.377.377,0,0,0,.247-.1,7.418,7.418,0,0,0,.3-2.469h-1.037a4.086,4.086,0,0,1-2.024,3.456,3.012,3.012,0,0,0-.642-.741,3.157,3.157,0,0,0,1.728-2.716h-.79v-.889a2.282,2.282,0,0,1-.346.346,9.835,9.835,0,0,0-.593-.938,5.124,5.124,0,0,0,1.481-2.518l.987.247a7.457,7.457,0,0,1-1.481,2.765h3.654a7.537,7.537,0,0,1-1.234-2.222h-.741v-.938Z" transform="translate(-176.773 -44.366)" fill="#4d4d4d"/>
          <path id="路径_94" data-name="路径 94" d="M279.66,59.526a2.659,2.659,0,0,1-.346.642h3.9v4.147c0,.494-.1.741-.444.938a3.988,3.988,0,0,1-1.481.148,7.494,7.494,0,0,0-.3-.987,10.243,10.243,0,0,0,1.037.049c.148,0,.2-.049.2-.148v-.494h-3.16a2.877,2.877,0,0,1-.938,1.679,2.644,2.644,0,0,0-.741-.741,2.813,2.813,0,0,0,.79-2.321v-.691a6.352,6.352,0,0,1-1.037.938,4.983,4.983,0,0,0-.642-.79,6.573,6.573,0,0,0,2.024-2.321h-1.777v-.938h2.271a8.508,8.508,0,0,0,.346-1.037l1.037.247a4.853,4.853,0,0,0-.247.79h4.1v.938H279.66Zm2.617,3.456v-.543h-3.012v.543Zm0-1.926h-3.012V61.6h3.012Z" transform="translate(-186.392 -44.417)" fill="#4d4d4d"/>
          <path id="路径_95" data-name="路径 95" d="M298.814,58.495c-.2.691-.494,1.531-.741,2.222a2.7,2.7,0,0,1,.593,1.728c0,.543-.1.889-.4,1.086a1.478,1.478,0,0,1-.494.2,1.01,1.01,0,0,1-.543,0,2.6,2.6,0,0,0-.2-.839h.346a.445.445,0,0,0,.247-.049.655.655,0,0,0,.148-.494,2.321,2.321,0,0,0-.592-1.531c.148-.494.346-1.185.494-1.728h-.79V65.7H296V58.149h1.975l.148-.049Zm4.493,4.3a10.227,10.227,0,0,1-1.185.839,3.135,3.135,0,0,0,1.382,1.136,2.931,2.931,0,0,0-.642.889,5.259,5.259,0,0,1-2.321-3.6h-.494v2.37l1.185-.247a4.8,4.8,0,0,0,.049.889,9.983,9.983,0,0,0-2.172.691,6.364,6.364,0,0,0-.444-.79.793.793,0,0,0,.395-.741V58.149h3.8V62h-1.432a5.262,5.262,0,0,0,.346.938,8.018,8.018,0,0,0,.938-.839ZM300,59.038v.642h1.827v-.642Zm0,2.123h1.827V60.47H300Z" transform="translate(-196.264 -44.67)" fill="#4d4d4d"/>
          <path id="路径_96" data-name="路径 96" d="M317.207,58.246a11.164,11.164,0,0,1-2.518,3.654c-.2-.2-.642-.642-.889-.839a8.805,8.805,0,0,0,2.271-3.16Zm2.321,3.851A31.358,31.358,0,0,1,321.4,65.01l-1.037.543a4.678,4.678,0,0,0-.444-.839c-4.049.3-4.641.346-5.036.543a7.5,7.5,0,0,0-.4-1.086,1.988,1.988,0,0,0,.839-.691,16.322,16.322,0,0,0,2.074-3.16l1.185.494a16.632,16.632,0,0,1-2.271,3.16l3.061-.2c-.247-.395-.543-.839-.79-1.234Zm.148-4.2a5.4,5.4,0,0,0,2.172,3.012,3.7,3.7,0,0,0-.741.987,8.1,8.1,0,0,1-2.172-2.962H317.6V57.9Z" transform="translate(-205.275 -44.569)" fill="#4d4d4d"/>
          <path id="路径_97" data-name="路径 97" d="M340.312,64.624c0,.592-.1.889-.444,1.037a3.63,3.63,0,0,1-1.629.2,4.618,4.618,0,0,0-.346-1.086,4.534,4.534,0,0,0,1.185,0c.148,0,.2-.049.2-.2V59.538H333.4V58.6h6.863v6.024Zm-1.876-3.6H333.5v-.889h4.937Zm-3.506,3.456v.592h-.987V61.612h4.049v2.814h-3.061Zm0-2.024v1.136h2.123V62.451Z" transform="translate(-215.198 -44.923)" fill="#4d4d4d"/>
        </g>
      </g>
      <g id="组_45" data-name="组 45" transform="translate(72.235 0.346)">
        <g id="组_44" data-name="组 44">
          <path id="路径_98" data-name="路径 98" d="M240.3,31.6h3.851a6.713,6.713,0,0,1,1.975.2,3.963,3.963,0,0,1,1.58.938,4.1,4.1,0,0,1,.987,1.679,7.264,7.264,0,0,1,.346,2.469,7.567,7.567,0,0,1-.3,2.222,4.275,4.275,0,0,1-1.136,1.827,3.543,3.543,0,0,1-1.481.839,6.391,6.391,0,0,1-1.876.2H240.3Zm2.123,1.777V40.29H244a7.024,7.024,0,0,0,1.284-.1,1.941,1.941,0,0,0,.839-.444,2.074,2.074,0,0,0,.543-.987,6.55,6.55,0,0,0,.2-1.926,6.392,6.392,0,0,0-.2-1.876,2.106,2.106,0,0,0-.592-.987,2.078,2.078,0,0,0-.987-.494,11.778,11.778,0,0,0-1.728-.1h-.938Z" transform="translate(-240.3 -31.6)" fill="#4d4d4d"/>
          <path id="路径_99" data-name="路径 99" d="M261,44.7V36.9h1.58v7.8Z" transform="translate(-250.779 -34.283)" fill="#4d4d4d"/>
          <path id="路径_100" data-name="路径 100" d="M270.7,41.635l.889-1.333h2.518v3.111a4.757,4.757,0,0,1-1.432.839,5.3,5.3,0,0,1-1.926.346,4.1,4.1,0,0,1-2.123-.494,3.347,3.347,0,0,1-1.382-1.481,4.888,4.888,0,0,1-.444-2.074,4.41,4.41,0,0,1,.494-2.172,3.57,3.57,0,0,1,1.481-1.481,4.223,4.223,0,0,1,1.876-.4,3.768,3.768,0,0,1,2.271.592,2.731,2.731,0,0,1,1.037,1.679l-1.58.3a1.328,1.328,0,0,0-.642-.889,1.731,1.731,0,0,0-1.136-.346,2.052,2.052,0,0,0-1.629.642,2.809,2.809,0,0,0-.592,1.926,2.825,2.825,0,0,0,.642,2.074,2.085,2.085,0,0,0,1.629.691,2.354,2.354,0,0,0,.987-.2,2.692,2.692,0,0,0,.839-.494v-.987H270.7Z" transform="translate(-253.716 -34.081)" fill="#4d4d4d"/>
          <path id="路径_101" data-name="路径 101" d="M284.4,44.7V36.9h1.58v7.8Z" transform="translate(-262.626 -34.283)" fill="#4d4d4d"/>
          <path id="路径_102" data-name="路径 102" d="M290.7,44.7V36.9h3.9l-.889,1.333H292.28v1.876h1.777l-.889,1.333h-.889v3.308H290.7Z" transform="translate(-265.815 -34.283)" fill="#4d4d4d"/>
          <path id="路径_103" data-name="路径 103" d="M300.7,44.752V37h1.58v6.419h1.975l-.889,1.333Z" transform="translate(-270.878 -34.334)" fill="#4d4d4d"/>
          <path id="路径_104" data-name="路径 104" d="M328.576,44.7,326.7,36.9h1.629l1.185,5.382,1.432-5.382h1.876l1.382,5.481L335.39,36.9h1.58l-1.876,7.8h-1.679l-1.58-5.826L330.3,44.7Z" transform="translate(-284.041 -34.283)" fill="#4d4d4d"/>
          <g id="组_43" data-name="组 43" transform="translate(34.118 2.567)">
            <path id="路径_105" data-name="路径 105" d="M313.3,36.8a3.9,3.9,0,1,0,3.9,3.9A3.909,3.909,0,0,0,313.3,36.8Zm0,6.419a2.567,2.567,0,1,1,2.567-2.567A2.581,2.581,0,0,1,313.3,43.219Zm0-.938a1.58,1.58,0,1,1,1.58-1.58A1.625,1.625,0,0,1,313.3,42.281Z" transform="translate(-309.4 -36.8)" fill="#4d4d4d"/>
          </g>
        </g>
      </g>
    </g>
    <g id="组_57" data-name="组 57" transform="translate(2.5 3.2)">
      <g id="组_47" data-name="组 47">
        <path id="路径_106" data-name="路径 106" d="M25.9,10.7l-3.752,3.744a8.432,8.432,0,0,1,1.284,1.035c2.518,2.365,3.752,5.616,3.752,9.8,0,4.04-1.185,7.242-3.555,9.557-2.37,2.365-5.53,3.547-9.579,3.547H7.635V28.928L2.5,34.051v9.262H12.72a28.964,28.964,0,0,0,7.307-.739,16.432,16.432,0,0,0,5.135-2.463,16.453,16.453,0,0,0,5.431-6.355,19.165,19.165,0,0,0,1.876-8.424c0-5.419-1.679-9.853-5.036-13.2A13.528,13.528,0,0,0,25.9,10.7Z" transform="translate(-2.5 -6.997)" fill="#cc9631"/>
        <path id="路径_107" data-name="路径 107" d="M13.017,8.187a17.537,17.537,0,0,1,6.024.938l4-4A19.407,19.407,0,0,0,14.2,3.2H2.5V25.616l4.394-4.394.691-.691,8.2-8.2H7.635V8.187h5.382Z" transform="translate(-2.5 -3.2)" fill="#e2be53"/>
      </g>
      <g id="组_56" data-name="组 56" transform="translate(14.96 19.035)">
        <g id="组_48" data-name="组 48" transform="translate(0 3.357)">
          <rect id="矩形_113" data-name="矩形 113" width="3.604" height="3.604" fill="#f7b52c"/>
        </g>
        <g id="组_49" data-name="组 49" transform="translate(5.481 10.862)">
          <rect id="矩形_114" data-name="矩形 114" width="3.111" height="3.111" fill="#f7b52c"/>
        </g>
        <g id="组_50" data-name="组 50" transform="translate(9.529 5.431)">
          <rect id="矩形_115" data-name="矩形 115" width="2.864" height="2.864" fill="#f7b52c"/>
        </g>
        <g id="组_51" data-name="组 51" transform="translate(15.257 5.431)">
          <rect id="矩形_116" data-name="矩形 116" width="2.864" height="2.864" fill="#f7b52c"/>
        </g>
        <g id="组_52" data-name="组 52" transform="translate(11.307 10.615)">
          <rect id="矩形_117" data-name="矩形 117" width="2.864" height="2.864" fill="#f7b52c"/>
        </g>
        <g id="组_53" data-name="组 53" transform="translate(15.257 14.368)">
          <rect id="矩形_118" data-name="矩形 118" width="2.864" height="2.864" fill="#f7b52c"/>
        </g>
        <g id="组_54" data-name="组 54" transform="translate(4.246)">
          <rect id="矩形_119" data-name="矩形 119" width="4.839" height="4.839" fill="#f7b52c"/>
        </g>
        <g id="组_55" data-name="组 55" transform="translate(19.355 9.134)">
          <rect id="矩形_120" data-name="矩形 120" width="4.839" height="4.839" fill="#f7b52c"/>
        </g>
      </g>
    </g>
  </g>
</svg>
